/* XPM */
static char *dummy[]={
"32 32 2 1",
". c #071821",
"# c #e0f8cf",
"................................",
"................................",
"................................",
"................................",
"....########################....",
"....########################....",
"....########################....",
"....########################....",
"....########....................",
"....########....................",
"....########....................",
"....########....................",
"....########################....",
"....########################....",
"....########################....",
"....########################....",
"....................########....",
"....................########....",
"....................########....",
"....................########....",
"....................########....",
"....................########....",
"....................########....",
"....................########....",
"....########################....",
"....########################....",
"....########################....",
"....########################....",
"................................",
"................................",
"................................",
"................................"};
