/* XPM */
static char *dummy[]={
"128 128 4 1",
". c None",
"# c #071821",
"a c #86c06c",
"b c #e0f8cf",
"....................########################........................................########################....................",
"....................########################........................................########################....................",
"....................########################........................................########################....................",
"....................########################........................................########################....................",
"............########aaaaaaaaaaaaaaaaaaaaaaaa####................................####aaaaaaaaaaaaaaaaaaaaaaaa########............",
"............########aaaaaaaaaaaaaaaaaaaaaaaa####................................####aaaaaaaaaaaaaaaaaaaaaaaa########............",
"............########aaaaaaaaaaaaaaaaaaaaaaaa####................................####aaaaaaaaaaaaaaaaaaaaaaaa########............",
"............########aaaaaaaaaaaaaaaaaaaaaaaa####................................####aaaaaaaaaaaaaaaaaaaaaaaa########............",
"........####aaaabbbbbbbbbbbbaaaaaaaaaaaaaaaaaaaa####........................####aaaaaaaaaaaaaaaaaaaaaaaaaaaaaaaaaaaa####........",
"........####aaaabbbbbbbbbbbbaaaaaaaaaaaaaaaaaaaa####........................####aaaaaaaaaaaaaaaaaaaaaaaaaaaaaaaaaaaa####........",
"........####aaaabbbbbbbbbbbbaaaaaaaaaaaaaaaaaaaa####........................####aaaaaaaaaaaaaaaaaaaaaaaaaaaaaaaaaaaa####........",
"........####aaaabbbbbbbbbbbbaaaaaaaaaaaaaaaaaaaa####........................####aaaaaaaaaaaaaaaaaaaaaaaaaaaaaaaaaaaa####........",
"....####aaaabbbbbbbbaaaaaaaaaaaa############aaaa####........................####aaaa############aaaaaaaaaaaaaaaaaaaaaaaa####....",
"....####aaaabbbbbbbbaaaaaaaaaaaa############aaaa####........................####aaaa############aaaaaaaaaaaaaaaaaaaaaaaa####....",
"....####aaaabbbbbbbbaaaaaaaaaaaa############aaaa####........................####aaaa############aaaaaaaaaaaaaaaaaaaaaaaa####....",
"....####aaaabbbbbbbbaaaaaaaaaaaa############aaaa####........................####aaaa############aaaaaaaaaaaaaaaaaaaaaaaa####....",
"....####bbbbbbbbaaaaaaaaaaaa####bbbbbbbbbbbb####................................####bbbbbbbbbbbb####aaaaaaaaaaaaaaaaaaaa####....",
"....####bbbbbbbbaaaaaaaaaaaa####bbbbbbbbbbbb####................................####bbbbbbbbbbbb####aaaaaaaaaaaaaaaaaaaa####....",
"....####bbbbbbbbaaaaaaaaaaaa####bbbbbbbbbbbb####................................####bbbbbbbbbbbb####aaaaaaaaaaaaaaaaaaaa####....",
"....####bbbbbbbbaaaaaaaaaaaa####bbbbbbbbbbbb####................................####bbbbbbbbbbbb####aaaaaaaaaaaaaaaaaaaa####....",
"####aaaabbbbaaaaaaaa####aaaa####bbbbbbbbbbbb####................................####bbbbbbbbbbbb####aaaa####aaaaaaaaaaaaaaaa####",
"####aaaabbbbaaaaaaaa####aaaa####bbbbbbbbbbbb####................................####bbbbbbbbbbbb####aaaa####aaaaaaaaaaaaaaaa####",
"####aaaabbbbaaaaaaaa####aaaa####bbbbbbbbbbbb####................................####bbbbbbbbbbbb####aaaa####aaaaaaaaaaaaaaaa####",
"####aaaabbbbaaaaaaaa####aaaa####bbbbbbbbbbbb####................................####bbbbbbbbbbbb####aaaa####aaaaaaaaaaaaaaaa####",
"####aaaaaaaaaaaa####bbbb####bbbbbbbbbbbb####................########................####bbbbbbbbbbbb####bbbb####aaaaaaaaaaaa####",
"####aaaaaaaaaaaa####bbbb####bbbbbbbbbbbb####................########................####bbbbbbbbbbbb####bbbb####aaaaaaaaaaaa####",
"####aaaaaaaaaaaa####bbbb####bbbbbbbbbbbb####................########................####bbbbbbbbbbbb####bbbb####aaaaaaaaaaaa####",
"####aaaaaaaaaaaa####bbbb####bbbbbbbbbbbb####................########................####bbbbbbbbbbbb####bbbb####aaaaaaaaaaaa####",
"####aaaaaaaaaaaa####bbbbbbbbbbbbbbbb####................####bbbbbbbb####................####bbbbbbbbbbbbbbbb####aaaaaaaaaaaa####",
"####aaaaaaaaaaaa####bbbbbbbbbbbbbbbb####................####bbbbbbbb####................####bbbbbbbbbbbbbbbb####aaaaaaaaaaaa####",
"####aaaaaaaaaaaa####bbbbbbbbbbbbbbbb####................####bbbbbbbb####................####bbbbbbbbbbbbbbbb####aaaaaaaaaaaa####",
"####aaaaaaaaaaaa####bbbbbbbbbbbbbbbb####................####bbbbbbbb####................####bbbbbbbbbbbbbbbb####aaaaaaaaaaaa####",
"....####aaaaaaaabbbbbbbbbbbbbbbbbbbb####....................########....................####bbbbbbbbbbbbbbbbbbbbaaaaaaaa####....",
"....####aaaaaaaabbbbbbbbbbbbbbbbbbbb####....................########....................####bbbbbbbbbbbbbbbbbbbbaaaaaaaa####....",
"....####aaaaaaaabbbbbbbbbbbbbbbbbbbb####....................########....................####bbbbbbbbbbbbbbbbbbbbaaaaaaaa####....",
"....####aaaaaaaabbbbbbbbbbbbbbbbbbbb####....................########....................####bbbbbbbbbbbbbbbbbbbbaaaaaaaa####....",
"....####aaaaaaaabbbbbbbbbbbbbbbb####....########........####bbbbbbbb####........########....####bbbbbbbbbbbbbbbbaaaaaaaa####....",
"....####aaaaaaaabbbbbbbbbbbbbbbb####....########........####bbbbbbbb####........########....####bbbbbbbbbbbbbbbbaaaaaaaa####....",
"....####aaaaaaaabbbbbbbbbbbbbbbb####....########........####bbbbbbbb####........########....####bbbbbbbbbbbbbbbbaaaaaaaa####....",
"....####aaaaaaaabbbbbbbbbbbbbbbb####....########........####bbbbbbbb####........########....####bbbbbbbbbbbbbbbbaaaaaaaa####....",
"........####aaaaaaaabbbb########....####bbbbbbbb########bbbbbbbbbbbbbbbb########bbbbbbbb####....########bbbbaaaaaaaa####........",
"........####aaaaaaaabbbb########....####bbbbbbbb########bbbbbbbbbbbbbbbb########bbbbbbbb####....########bbbbaaaaaaaa####........",
"........####aaaaaaaabbbb########....####bbbbbbbb########bbbbbbbbbbbbbbbb########bbbbbbbb####....########bbbbaaaaaaaa####........",
"........####aaaaaaaabbbb########....####bbbbbbbb########bbbbbbbbbbbbbbbb########bbbbbbbb####....########bbbbaaaaaaaa####........",
"............####aaaa####................########bbbbaaaabbbbbbbbbbbbbbbbaaaabbbb########................####aaaa####............",
"............####aaaa####................########bbbbaaaabbbbbbbbbbbbbbbbaaaabbbb########................####aaaa####............",
"............####aaaa####................########bbbbaaaabbbbbbbbbbbbbbbbaaaabbbb########................####aaaa####............",
"............####aaaa####................########bbbbaaaabbbbbbbbbbbbbbbbaaaabbbb########................####aaaa####............",
"............####aaaaaaaa####................####bbbbbbbbbbbbaaaaaaaabbbbbbbbbbbb####................####aaaaaaaa####............",
"............####aaaaaaaa####................####bbbbbbbbbbbbaaaaaaaabbbbbbbbbbbb####................####aaaaaaaa####............",
"............####aaaaaaaa####................####bbbbbbbbbbbbaaaaaaaabbbbbbbbbbbb####................####aaaaaaaa####............",
"............####aaaaaaaa####................####bbbbbbbbbbbbaaaaaaaabbbbbbbbbbbb####................####aaaaaaaa####............",
"................####aaaaaaaa########....####aaaa####bbbbbbbbbbbbbbbbbbbbbbbb####aaaa####....########aaaaaaaa####................",
"................####aaaaaaaa########....####aaaa####bbbbbbbbbbbbbbbbbbbbbbbb####aaaa####....########aaaaaaaa####................",
"................####aaaaaaaa########....####aaaa####bbbbbbbbbbbbbbbbbbbbbbbb####aaaa####....########aaaaaaaa####................",
"................####aaaaaaaa########....####aaaa####bbbbbbbbbbbbbbbbbbbbbbbb####aaaa####....########aaaaaaaa####................",
"................####aaaaaaaaaaaaaaaa####aaaaaaaaaaaa########################aaaaaaaaaaaa####aaaaaaaaaaaaaaaa####................",
"................####aaaaaaaaaaaaaaaa####aaaaaaaaaaaa########################aaaaaaaaaaaa####aaaaaaaaaaaaaaaa####................",
"................####aaaaaaaaaaaaaaaa####aaaaaaaaaaaa########################aaaaaaaaaaaa####aaaaaaaaaaaaaaaa####................",
"................####aaaaaaaaaaaaaaaa####aaaaaaaaaaaa########################aaaaaaaaaaaa####aaaaaaaaaaaaaaaa####................",
"....................####aaaaaaaaaaaa####aaaabbbbaaaaaaaaaaaaaaaaaaaaaaaaaaaaaaaaaaaaaaaa####aaaaaaaaaaaa####....................",
"....................####aaaaaaaaaaaa####aaaabbbbaaaaaaaaaaaaaaaaaaaaaaaaaaaaaaaaaaaaaaaa####aaaaaaaaaaaa####....................",
"....................####aaaaaaaaaaaa####aaaabbbbaaaaaaaaaaaaaaaaaaaaaaaaaaaaaaaaaaaaaaaa####aaaaaaaaaaaa####....................",
"....................####aaaaaaaaaaaa####aaaabbbbaaaaaaaaaaaaaaaaaaaaaaaaaaaaaaaaaaaaaaaa####aaaaaaaaaaaa####....................",
"....................####aaaaaaaa####aaaabbbbaaaaaaaaaaaaaaaaaaaaaaaaaaaaaaaaaaaaaaaaaaaaaaaa####aaaaaaaa####....................",
"....................####aaaaaaaa####aaaabbbbaaaaaaaaaaaaaaaaaaaaaaaaaaaaaaaaaaaaaaaaaaaaaaaa####aaaaaaaa####....................",
"....................####aaaaaaaa####aaaabbbbaaaaaaaaaaaaaaaaaaaaaaaaaaaaaaaaaaaaaaaaaaaaaaaa####aaaaaaaa####....................",
"....................####aaaaaaaa####aaaabbbbaaaaaaaaaaaaaaaaaaaaaaaaaaaaaaaaaaaaaaaaaaaaaaaa####aaaaaaaa####....................",
"........................########aaaaaaaabbbbaaaabbbbaaaaaaaaaaaaaaaaaaaaaaaabbbbaaaaaaaaaaaaaaaa########........................",
"........................########aaaaaaaabbbbaaaabbbbaaaaaaaaaaaaaaaaaaaaaaaabbbbaaaaaaaaaaaaaaaa########........................",
"........................########aaaaaaaabbbbaaaabbbbaaaaaaaaaaaaaaaaaaaaaaaabbbbaaaaaaaaaaaaaaaa########........................",
"........................########aaaaaaaabbbbaaaabbbbaaaaaaaaaaaaaaaaaaaaaaaabbbbaaaaaaaaaaaaaaaa########........................",
"........................####aaaaaaaabbbbaaaaaaaa####bbbbaaaaaaaaaaaaaaaabbbb####aaaaaaaaaaaaaaaaaaaa####........................",
"........................####aaaaaaaabbbbaaaaaaaa####bbbbaaaaaaaaaaaaaaaabbbb####aaaaaaaaaaaaaaaaaaaa####........................",
"........................####aaaaaaaabbbbaaaaaaaa####bbbbaaaaaaaaaaaaaaaabbbb####aaaaaaaaaaaaaaaaaaaa####........................",
"........................####aaaaaaaabbbbaaaaaaaa####bbbbaaaaaaaaaaaaaaaabbbb####aaaaaaaaaaaaaaaaaaaa####........................",
"................############aaaaaaaabbbbaaaaaaaabbbb####bbbbaaaaaaaabbbb####bbbbaaaaaaaaaaaaaaaaaaaa############................",
"................############aaaaaaaabbbbaaaaaaaabbbb####bbbbaaaaaaaabbbb####bbbbaaaaaaaaaaaaaaaaaaaa############................",
"................############aaaaaaaabbbbaaaaaaaabbbb####bbbbaaaaaaaabbbb####bbbbaaaaaaaaaaaaaaaaaaaa############................",
"................############aaaaaaaabbbbaaaaaaaabbbb####bbbbaaaaaaaabbbb####bbbbaaaaaaaaaaaaaaaaaaaa############................",
"............####aaaaaaaa####aaaaaaaaaaaaaaaabbbbbbbbbbbb####bbbbbbbb####bbbbbbbbbbbbaaaaaaaaaaaaaaaa####aaaaaaaa####............",
"............####aaaaaaaa####aaaaaaaaaaaaaaaabbbbbbbbbbbb####bbbbbbbb####bbbbbbbbbbbbaaaaaaaaaaaaaaaa####aaaaaaaa####............",
"............####aaaaaaaa####aaaaaaaaaaaaaaaabbbbbbbbbbbb####bbbbbbbb####bbbbbbbbbbbbaaaaaaaaaaaaaaaa####aaaaaaaa####............",
"............####aaaaaaaa####aaaaaaaaaaaaaaaabbbbbbbbbbbb####bbbbbbbb####bbbbbbbbbbbbaaaaaaaaaaaaaaaa####aaaaaaaa####............",
"........####aaaaaaaaaaaa####aaaaaaaaaaaabbbbbbbbbbbbbbbbbbbbbbbbbbbbbbbbbbbbbbbbbbbbbbbbaaaaaaaaaaaa####aaaaaaaaaaaa####........",
"........####aaaaaaaaaaaa####aaaaaaaaaaaabbbbbbbbbbbbbbbbbbbbbbbbbbbbbbbbbbbbbbbbbbbbbbbbaaaaaaaaaaaa####aaaaaaaaaaaa####........",
"........####aaaaaaaaaaaa####aaaaaaaaaaaabbbbbbbbbbbbbbbbbbbbbbbbbbbbbbbbbbbbbbbbbbbbbbbbaaaaaaaaaaaa####aaaaaaaaaaaa####........",
"........####aaaaaaaaaaaa####aaaaaaaaaaaabbbbbbbbbbbbbbbbbbbbbbbbbbbbbbbbbbbbbbbbbbbbbbbbaaaaaaaaaaaa####aaaaaaaaaaaa####........",
"........####aaaaaaaa########aaaaaaaabbbbbbbbbbbbbbbbbbbbbbbbbbbbbbbbbbbbbbbbbbbbbbbbbbbbbbbbaaaaaaaa########aaaaaaaa####........",
"........####aaaaaaaa########aaaaaaaabbbbbbbbbbbbbbbbbbbbbbbbbbbbbbbbbbbbbbbbbbbbbbbbbbbbbbbbaaaaaaaa########aaaaaaaa####........",
"........####aaaaaaaa########aaaaaaaabbbbbbbbbbbbbbbbbbbbbbbbbbbbbbbbbbbbbbbbbbbbbbbbbbbbbbbbaaaaaaaa########aaaaaaaa####........",
"........####aaaaaaaa########aaaaaaaabbbbbbbbbbbbbbbbbbbbbbbbbbbbbbbbbbbbbbbbbbbbbbbbbbbbbbbbaaaaaaaa########aaaaaaaa####........",
"....####aaaaaaaa####aaaaaaaa############bbbb####bbbbbbbbbbbbbbbbbbbbbbbbbbbbbbbb####bbbb############aaaaaaaa####aaaaaaaa####....",
"....####aaaaaaaa####aaaaaaaa############bbbb####bbbbbbbbbbbbbbbbbbbbbbbbbbbbbbbb####bbbb############aaaaaaaa####aaaaaaaa####....",
"....####aaaaaaaa####aaaaaaaa############bbbb####bbbbbbbbbbbbbbbbbbbbbbbbbbbbbbbb####bbbb############aaaaaaaa####aaaaaaaa####....",
"....####aaaaaaaa####aaaaaaaa############bbbb####bbbbbbbbbbbbbbbbbbbbbbbbbbbbbbbb####bbbb############aaaaaaaa####aaaaaaaa####....",
"....####aaaaaaaa####aaaaaaaa####bbbbbbbb####bbbb########bbbbbbbbbbbbbbbb########bbbb####bbbbbbbb####aaaaaaaa####aaaaaaaa####....",
"....####aaaaaaaa####aaaaaaaa####bbbbbbbb####bbbb########bbbbbbbbbbbbbbbb########bbbb####bbbbbbbb####aaaaaaaa####aaaaaaaa####....",
"....####aaaaaaaa####aaaaaaaa####bbbbbbbb####bbbb########bbbbbbbbbbbbbbbb########bbbb####bbbbbbbb####aaaaaaaa####aaaaaaaa####....",
"....####aaaaaaaa####aaaaaaaa####bbbbbbbb####bbbb########bbbbbbbbbbbbbbbb########bbbb####bbbbbbbb####aaaaaaaa####aaaaaaaa####....",
"....####aaaa####aaaaaaaa############bbbbbbbbbbbbbbbbbbbb################bbbbbbbbbbbbbbbbbbbb############aaaaaaaa####aaaa####....",
"....####aaaa####aaaaaaaa############bbbbbbbbbbbbbbbbbbbb################bbbbbbbbbbbbbbbbbbbb############aaaaaaaa####aaaa####....",
"....####aaaa####aaaaaaaa############bbbbbbbbbbbbbbbbbbbb################bbbbbbbbbbbbbbbbbbbb############aaaaaaaa####aaaa####....",
"....####aaaa####aaaaaaaa############bbbbbbbbbbbbbbbbbbbb################bbbbbbbbbbbbbbbbbbbb############aaaaaaaa####aaaa####....",
"####aaaaaaaa####aaaa########aaaaaaaa############bbbbbbbbbbbbbbbbbbbbbbbbbbbbbbbb############aaaaaaaa########aaaa####aaaaaaaa####",
"####aaaaaaaa####aaaa########aaaaaaaa############bbbbbbbbbbbbbbbbbbbbbbbbbbbbbbbb############aaaaaaaa########aaaa####aaaaaaaa####",
"####aaaaaaaa####aaaa########aaaaaaaa############bbbbbbbbbbbbbbbbbbbbbbbbbbbbbbbb############aaaaaaaa########aaaa####aaaaaaaa####",
"####aaaaaaaa####aaaa########aaaaaaaa############bbbbbbbbbbbbbbbbbbbbbbbbbbbbbbbb############aaaaaaaa########aaaa####aaaaaaaa####",
"####aaaa####aaaaaaaa####aaaaaaaaaaaaaaaa################################################aaaaaaaaaaaaaaaa####aaaaaaaa####aaaa####",
"####aaaa####aaaaaaaa####aaaaaaaaaaaaaaaa################################################aaaaaaaaaaaaaaaa####aaaaaaaa####aaaa####",
"####aaaa####aaaaaaaa####aaaaaaaaaaaaaaaa################################################aaaaaaaaaaaaaaaa####aaaaaaaa####aaaa####",
"####aaaa####aaaaaaaa####aaaaaaaaaaaaaaaa################################################aaaaaaaaaaaaaaaa####aaaaaaaa####aaaa####",
"####aaaa####aaaa####aaaaaaaa############................................................############aaaaaaaa####aaaa####aaaa####",
"####aaaa####aaaa####aaaaaaaa############................................................############aaaaaaaa####aaaa####aaaa####",
"####aaaa####aaaa####aaaaaaaa############................................................############aaaaaaaa####aaaa####aaaa####",
"####aaaa####aaaa####aaaaaaaa############................................................############aaaaaaaa####aaaa####aaaa####",
"############aaaa####aaaa####........................................................................####aaaa####aaaa############",
"############aaaa####aaaa####........................................................................####aaaa####aaaa############",
"############aaaa####aaaa####........................................................................####aaaa####aaaa############",
"############aaaa####aaaa####........................................................................####aaaa####aaaa############",
"........############aaaa####........................................................................####aaaa############........",
"........############aaaa####........................................................................####aaaa############........",
"........############aaaa####........................................................................####aaaa############........",
"........############aaaa####........................................................................####aaaa############........",
"................########................................................................................########................",
"................########................................................................................########................",
"................########................................................................................########................",
"................########................................................................................########................"};
