/* XPM */
static char *dummy[]={
"64 64 6 1",
". c #00d1ff",
"a c #1200ff",
"b c #86c06c",
"d c #f0ff00",
"c c #ff0000",
"# c #ff00fe",
"............................................................####",
"............................................................####",
"............................................................####",
"............................................................####",
"aaaabbbbbbbbbbbbbbbbbbbbbbbbbccccbbbbbbbbbbbbbbbbbbbbbbbbbbb####",
"aaaabbbbbbbbbbbbbbbbbbbbbbbbbccccbbbbbbbbbbbbbbbbbbbbbbbbbbb####",
"aaaabbbbbbbbbbbbbbbbbbbbbbbbbccccbbbbbbbbbbbbbbbbbbbbbbbbbbb####",
"aaaabbbbbbbbbbbbbbbbbbbbbbbbbccccbbbbbbbbbbbbbbbbbbbbbbbbbbb####",
"aaaabbbbbbbbbbbbbbbbbbbbbbbbbccccbbbbbbbbbbbbbbbbbbbbbbbbbbb####",
"aaaabbbbbbbbbbbbbbbbbbbbbbbbbccccbbbbbbbbbbbbbbbbbbbbbbbbbbb####",
"aaaabbbbbbbbbbbbbbbbbbbbbbbbbccccbbbbbbbbbbbbbbbbbbbbbbbbbbb####",
"aaaabbbbbbbbbbbbbbbbbbbbbbbbbccccbbbbbbbbbbbbbbbbbbbbbbbbbbb####",
"aaaabbbbbbbbbbbbbbbbbbbbbbbbbccccbbbbbbbbbbbbbbbbbbbbbbbbbbb####",
"aaaabbbbbbbbbbbbbbbbbbbbbbbbbccccbbbbbbbbbbbbbbbbbbbbbbbbbbb####",
"aaaabbbbbbbbbbbbbbbbbbbbbbbbbccccbbbbbbbbbbbbbbbbbbbbbbbbbbb####",
"aaaabbbbbbbbbbbbbbbbbbbbbbbbbccccbbbbbbbbbbbbbbbbbbbbbbbbbbb####",
"aaaabbbbbbbbbbbbbbbbbbbbbbbbbccccbbbbbbbbbbbbbbbbbbbbbbbbbbb####",
"aaaabbbbbbbbbbbbbbbbbbbbbbbbbccccbbbbbbbbbbbbbbbbbbbbbbbbbbb####",
"aaaabbbbbbbbbbbbbbbbbbbbbbbbbccccbbbbbbbbbbbbbbbbbbbbbbbbbbb####",
"aaaabbbbbbbbbbbbbbbbbbbbbbbbbccccbbbbbbbbbbbbbbbbbbbbbbbbbbb####",
"aaaabbbbbbbbbbbbbbbbbbbbbbbbbccccbbbbbbbbbbbbbbbbbbbbbbbbbbb####",
"aaaabbbbbbbbbbbbbbbbbbbbbbbbbccccbbbbbbbbbbbbbbbbbbbbbbbbbbb####",
"aaaabbbbbbbbbbbbbbbbbbbbbbbbbccccbbbbbbbbbbbbbbbbbbbbbbbbbbb####",
"aaaabbbbbbbbbbbbbbbbbbbbbbbbbccccbbbbbbbbbbbbbbbbbbbbbbbbbbb####",
"aaaabbbbbbbbbbbbbbbbbbbbbbbbbccccbbbbbbbbbbbbbbbbbbbbbbbbbbb####",
"aaaabbbbbbbbbbbbbbbbbbbbbbbbbccccbbbbbbbbbbbbbbbbbbbbbbbbbbb####",
"aaaabbbbbbbbbbbbbbbbbbbbbbbbbccccbbbbbbbbbbbbbbbbbbbbbbbbbbb####",
"aaaabbbbbbbbbbbbbbbbbbbbbbbbbccccbbbbbbbbbbbbbbbbbbbbbbbbbbb####",
"aaaabbbbbbbbbbbbbbbbbbbbbbbbbccccbbbbbbbbbbbbbbbbbbbbbbbbbbb####",
"aaaabbbbbbbbbbbbbbbbbbbbbbbbbccccbbbbbbbbbbbbbbbbbbbbbbbbbbb####",
"aaaabbbbbbbbbbbbbbbbbbbbbbbbbccccbbbbbbbbbbbbbbbbbbbbbbbbbbb####",
"aaaabbbbbbbbbbbbbbbbbbbbbbbbbccccbbbbbbbbbbbbbbbbbbbbbbbbbbb####",
"aaaabbbbbbbbbbbbbbbbbbbbbbbbbccccbbbbbbbbbbbbbbbbbbbbbbbbbbb####",
"aaaabbbbbbbbbbbbbbbbbbbbbbbbbccccbbbbbbbbbbbbbbbbbbbbbbbbbbb####",
"aaaabbbbbbbbbbbbbbbbbbbbbbbbbccccbbbbbbbbbbbbbbbbbbbbbbbbbbb####",
"aaaabbbbbbbbbbbbbbbbbbbbbbbbbccccbbbbbbbbbbbbbbbbbbbbbbbbbbb####",
"aaaabbbbbbbbbbbbbbbbbbbbbbbbbccccbbbbbbbbbbbbbbbbbbbbbbbbbbb####",
"aaaabbbbbbbbbbbbbbbbbbbbbbbbbccccbbbbbbbbbbbbbbbbbbbbbbbbbbb####",
"aaaabbbbbbbbbbbbbbbbbbbbbbbbbccccbbbbbbbbbbbbbbbbbbbbbbbbbbb####",
"aaaabbbbbbbbbbbbbbbbbbbbbbbbbccccbbbbbbbbbbbbbbbbbbbbbbbbbbb####",
"aaaabbbbbbbbbbbbbbbbbbbbbbbbbccccbbbbbbbbbbbbbbbbbbbbbbbbbbb####",
"aaaabbbbbbbbbbbbbbbbbbbbbbbbbccccbbbbbbbbbbbbbbbbbbbbbbbbbbb####",
"aaaabbbbbbbbbbbbbbbbbbbbbbbbbccccbbbbbbbbbbbbbbbbbbbbbbbbbbb####",
"aaaabbbbbbbbbbbbbbbbbbbbbbbbbccccbbbbbbbbbbbbbbbbbbbbbbbbbbb####",
"aaaabbbbbbbbbbbbbbbbbbbbbbbbbccccbbbbbbbbbbbbbbbbbbbbbbbbbbb####",
"aaaabbbbbbbbbbbbbbbbbbbbbbbbbccccbbbbbbbbbbbbbbbbbbbbbbbbbbb####",
"aaaabbbbbbbbbbbbbbbbbbbbbbbbbccccbbbbbbbbbbbbbbbbbbbbbbbbbbb####",
"aaaabbbbbbbbbbbbbbbbbbbbbbbbbccccbbbbbbbbbbbbbbbbbbbbbbbbbbb####",
"aaaabbbbbbbbbbbbbbbbbbbbbbbbbccccbbbbbbbbbbbbbbbbbbbbbbbbbbb####",
"aaaabbbbbbbbbbbbbbbbbbbbbbbbbccccbbbbbbbbbbbbbbbbbbbbbbbbbbb####",
"aaaabbbbbbbbbbbbbbbbbbbbbbbbbccccbbbbbbbbbbbbbbbbbbbbbbbbbbb####",
"aaaabbbbbbbbbbbbbbbbbbbbbbbbbccccbbbbbbbbbbbbbbbbbbbbbbbbbbb####",
"aaaabbbbbbbbbbbbbbbbbbbbbbbbbccccbbbbbbbbbbbbbbbbbbbbbbbbbbb####",
"aaaabbbbbbbbbbbbbbbbbbbbbbbbbccccbbbbbbbbbbbbbbbbbbbbbbbbbbb####",
"aaaabbbbbbbbbbbbbbbbbbbbbbbbbccccbbbbbbbbbbbbbbbbbbbbbbbbbbb####",
"aaaabbbbbbbbbbbbbbbbbbbbbbbbbccccbbbbbbbbbbbbbbbbbbbbbbbbbbb####",
"aaaabbbbbbbbbbbbbbbbbbbbbbbbbccccbbbbbbbbbbbbbbbbbbbbbbbbbbb####",
"aaaabbbbbbbbbbbbbbbbbbbbbbbbbccccbbbbbbbbbbbbbbbbbbbbbbbbbbb####",
"aaaabbbbbbbbbbbbbbbbbbbbbbbbbccccbbbbbbbbbbbbbbbbbbbbbbbbbbb####",
"aaaabbbbbbbbbbbbbbbbbbbbbbbbbccccbbbbbbbbbbbbbbbbbbbbbbbbbbb####",
"aaaadddddddddddddddddddddddddddddddddddddddddddddddddddddddddddd",
"aaaadddddddddddddddddddddddddddddddddddddddddddddddddddddddddddd",
"aaaadddddddddddddddddddddddddddddddddddddddddddddddddddddddddddd",
"aaaadddddddddddddddddddddddddddddddddddddddddddddddddddddddddddd"};
