/* XPM */
static char *dummy[]={
"64 64 4 1",
"# c #2a0503",
". c #8e2f15",
"b c #da7a34",
"a c #fff6d3",
"........################################################........",
"........################################################........",
"........################################################........",
"........################################################........",
"....####....aaaaaaaaaaaaaaaaaaaaaaaaaaaaaaaaaaaaaaaa....####....",
"....####....aaaaaaaaaaaaaaaaaaaaaaaaaaaaaaaaaaaaaaaa....####....",
"....####....aaaaaaaaaaaaaaaaaaaaaaaaaaaaaaaaaaaaaaaa....####....",
"....####....aaaaaaaaaaaaaaaaaaaaaaaaaaaaaaaaaaaaaaaa....####....",
"####....aaaabbbb................................bbbbaaaa....####",
"####....aaaabbbb................................bbbbaaaa....####",
"####....aaaabbbb................................bbbbaaaa....####",
"####....aaaabbbb................................bbbbaaaa....####",
"####aaaabbbbbbbbbbbbbbbbbbbbbbbbbbbbbbbbbbbbbbbbbbbbbbbbaaaa####",
"####aaaabbbbbbbbbbbbbbbbbbbbbbbbbbbbbbbbbbbbbbbbbbbbbbbbaaaa####",
"####aaaabbbbbbbbbbbbbbbbbbbbbbbbbbbbbbbbbbbbbbbbbbbbbbbbaaaa####",
"####aaaabbbbbbbbbbbbbbbbbbbbbbbbbbbbbbbbbbbbbbbbbbbbbbbbaaaa####",
"####bbbbbbbbbbbbbbbb........................bbbbbbbbbbbbbbbb####",
"####bbbbbbbbbbbbbbbb........................bbbbbbbbbbbbbbbb####",
"####bbbbbbbbbbbbbbbb........................bbbbbbbbbbbbbbbb####",
"####bbbbbbbbbbbbbbbb........................bbbbbbbbbbbbbbbb####",
"####bbbbbbbbbbbbbbbb....bbbbbbbbbbbbbbbb....bbbbbbbbbbbbbbbb####",
"####bbbbbbbbbbbbbbbb....bbbbbbbbbbbbbbbb....bbbbbbbbbbbbbbbb####",
"####bbbbbbbbbbbbbbbb....bbbbbbbbbbbbbbbb....bbbbbbbbbbbbbbbb####",
"####bbbbbbbbbbbbbbbb....bbbbbbbbbbbbbbbb....bbbbbbbbbbbbbbbb####",
"####bbbbbbbbbbbbbbbb........................bbbbbbbbbbbbbbbb####",
"####bbbbbbbbbbbbbbbb........................bbbbbbbbbbbbbbbb####",
"####bbbbbbbbbbbbbbbb........................bbbbbbbbbbbbbbbb####",
"####bbbbbbbbbbbbbbbb........................bbbbbbbbbbbbbbbb####",
"####bbbbbbbbbbbbbbbbbbbbbbbbbbbbbbbbbbbbbbbbbbbbbbbbbbbbbbbb####",
"####bbbbbbbbbbbbbbbbbbbbbbbbbbbbbbbbbbbbbbbbbbbbbbbbbbbbbbbb####",
"####bbbbbbbbbbbbbbbbbbbbbbbbbbbbbbbbbbbbbbbbbbbbbbbbbbbbbbbb####",
"####bbbbbbbbbbbbbbbbbbbbbbbbbbbbbbbbbbbbbbbbbbbbbbbbbbbbbbbb####",
"####bbbbbbbbbbbbbbbbbbbbbbbbbbbbbbbb########bbbbbbbbbbbbbbbb####",
"####bbbbbbbbbbbbbbbbbbbbbbbbbbbbbbbb########bbbbbbbbbbbbbbbb####",
"####bbbbbbbbbbbbbbbbbbbbbbbbbbbbbbbb########bbbbbbbbbbbbbbbb####",
"####bbbbbbbbbbbbbbbbbbbbbbbbbbbbbbbb########bbbbbbbbbbbbbbbb####",
"####bbbbbbbbbbbbbbbbbbbbbbbbbbbb####aaaaaaaa####bbbbbbbbbbbb####",
"####bbbbbbbbbbbbbbbbbbbbbbbbbbbb####aaaaaaaa####bbbbbbbbbbbb####",
"####bbbbbbbbbbbbbbbbbbbbbbbbbbbb####aaaaaaaa####bbbbbbbbbbbb####",
"####bbbbbbbbbbbbbbbbbbbbbbbbbbbb####aaaaaaaa####bbbbbbbbbbbb####",
"####bbbbbbbbbbbbbbbbbbbbbbbbbbbb####aaaaaaaa####bbbbbbbbbbbb####",
"####bbbbbbbbbbbbbbbbbbbbbbbbbbbb####aaaaaaaa####bbbbbbbbbbbb####",
"####bbbbbbbbbbbbbbbbbbbbbbbbbbbb####aaaaaaaa####bbbbbbbbbbbb####",
"####bbbbbbbbbbbbbbbbbbbbbbbbbbbb####aaaaaaaa####bbbbbbbbbbbb####",
"####bbbbbbbbbbbbbbbbbbbbbbbbbbbb....########....bbbbbbbbbbbb####",
"####bbbbbbbbbbbbbbbbbbbbbbbbbbbb....########....bbbbbbbbbbbb####",
"####bbbbbbbbbbbbbbbbbbbbbbbbbbbb....########....bbbbbbbbbbbb####",
"####bbbbbbbbbbbbbbbbbbbbbbbbbbbb....########....bbbbbbbbbbbb####",
"####bbbbbbbbbbbbbbbbbbbbbbbbbbbb................bbbbbbbbbbbb####",
"####bbbbbbbbbbbbbbbbbbbbbbbbbbbb................bbbbbbbbbbbb####",
"####bbbbbbbbbbbbbbbbbbbbbbbbbbbb................bbbbbbbbbbbb####",
"####bbbbbbbbbbbbbbbbbbbbbbbbbbbb................bbbbbbbbbbbb####",
"####bbbbbbbbbbbbbbbbbbbbbbbbbbbbbbbbbbbbbbbbbbbbbbbbbbbbbbbb####",
"####bbbbbbbbbbbbbbbbbbbbbbbbbbbbbbbbbbbbbbbbbbbbbbbbbbbbbbbb####",
"####bbbbbbbbbbbbbbbbbbbbbbbbbbbbbbbbbbbbbbbbbbbbbbbbbbbbbbbb####",
"####bbbbbbbbbbbbbbbbbbbbbbbbbbbbbbbbbbbbbbbbbbbbbbbbbbbbbbbb####",
"####bbbbbbbbbbbbbbbbbbbbbbbbbbbbbbbbbbbbbbbbbbbbbbbbbbbbbbbb####",
"####bbbbbbbbbbbbbbbbbbbbbbbbbbbbbbbbbbbbbbbbbbbbbbbbbbbbbbbb####",
"####bbbbbbbbbbbbbbbbbbbbbbbbbbbbbbbbbbbbbbbbbbbbbbbbbbbbbbbb####",
"####bbbbbbbbbbbbbbbbbbbbbbbbbbbbbbbbbbbbbbbbbbbbbbbbbbbbbbbb####",
"################################################################",
"################################################################",
"################################################################",
"################################################################"};
