/* XPM */
static char *dummy[]={
"64 64 3 1",
"# c #2a0503",
". c #8e2f15",
"a c #da7a34",
"........################################################........",
"........################################################........",
"........################################################........",
"........################################################........",
"....####....aaaaaaaaaaaaaaaaaaaaaaaaaaaaaaaaaaaaaaaa....####....",
"....####....aaaaaaaaaaaaaaaaaaaaaaaaaaaaaaaaaaaaaaaa....####....",
"....####....aaaaaaaaaaaaaaaaaaaaaaaaaaaaaaaaaaaaaaaa....####....",
"....####....aaaaaaaaaaaaaaaaaaaaaaaaaaaaaaaaaaaaaaaa....####....",
"####....aaaa....####........................####....aaaa....####",
"####....aaaa....####........................####....aaaa....####",
"####....aaaa....####........................####....aaaa....####",
"####....aaaa....####........................####....aaaa....####",
"####aaaa....####aaaa####................####aaaa####....aaaa####",
"####aaaa....####aaaa####................####aaaa####....aaaa####",
"####aaaa....####aaaa####................####aaaa####....aaaa####",
"####aaaa....####aaaa####................####aaaa####....aaaa####",
"####....####aaaaaaaaaaaa####........####aaaaaaaaaaaa####....####",
"####....####aaaaaaaaaaaa####........####aaaaaaaaaaaa####....####",
"####....####aaaaaaaaaaaa####........####aaaaaaaaaaaa####....####",
"####....####aaaaaaaaaaaa####........####aaaaaaaaaaaa####....####",
"########aaaaaaaa....aaaaaaaa########aaaaaaaa....aaaaaaaa########",
"########aaaaaaaa....aaaaaaaa########aaaaaaaa....aaaaaaaa########",
"########aaaaaaaa....aaaaaaaa########aaaaaaaa....aaaaaaaa########",
"########aaaaaaaa....aaaaaaaa########aaaaaaaa....aaaaaaaa########",
"############aaaaaaaaaaaaaaaaaaaa####aaaaaaaaaaaaaaaa############",
"############aaaaaaaaaaaaaaaaaaaa####aaaaaaaaaaaaaaaa############",
"############aaaaaaaaaaaaaaaaaaaa####aaaaaaaaaaaaaaaa############",
"############aaaaaaaaaaaaaaaaaaaa####aaaaaaaaaaaaaaaa############",
"####....########aaaaaaaaaaaaaaaaaaaa####aaaaaaaa########....####",
"####....########aaaaaaaaaaaaaaaaaaaa####aaaaaaaa########....####",
"####....########aaaaaaaaaaaaaaaaaaaa####aaaaaaaa########....####",
"####....########aaaaaaaaaaaaaaaaaaaa####aaaaaaaa########....####",
"####........########aaaaaaaaaaaaaaaaaaaa############........####",
"####........########aaaaaaaaaaaaaaaaaaaa############........####",
"####........########aaaaaaaaaaaaaaaaaaaa############........####",
"####........########aaaaaaaaaaaaaaaaaaaa############........####",
"####............########aaaaaaaaaaaaaaaaaaaa####............####",
"####............########aaaaaaaaaaaaaaaaaaaa####............####",
"####............########aaaaaaaaaaaaaaaaaaaa####............####",
"####............########aaaaaaaaaaaaaaaaaaaa####............####",
"####........####aaaaaaaa####aaaaaaaaaaaaaaaaaaaa####........####",
"####........####aaaaaaaa####aaaaaaaaaaaaaaaaaaaa####........####",
"####........####aaaaaaaa####aaaaaaaaaaaaaaaaaaaa####........####",
"####........####aaaaaaaa####aaaaaaaaaaaaaaaaaaaa####........####",
"####....####aaaaaaaaaaaaaaaa####aaaaaaaaaaaaaaaaaaaa####....####",
"####....####aaaaaaaaaaaaaaaa####aaaaaaaaaaaaaaaaaaaa####....####",
"####....####aaaaaaaaaaaaaaaa####aaaaaaaaaaaaaaaaaaaa####....####",
"####....####aaaaaaaaaaaaaaaa####aaaaaaaaaaaaaaaaaaaa####....####",
"########aaaaaaaa....aaaaaaaa########aaaaaaaa....aaaaaaaa########",
"########aaaaaaaa....aaaaaaaa########aaaaaaaa....aaaaaaaa########",
"########aaaaaaaa....aaaaaaaa########aaaaaaaa....aaaaaaaa########",
"########aaaaaaaa....aaaaaaaa########aaaaaaaa....aaaaaaaa########",
"############aaaaaaaaaaaa################aaaaaaaaaaaa############",
"############aaaaaaaaaaaa################aaaaaaaaaaaa############",
"############aaaaaaaaaaaa################aaaaaaaaaaaa############",
"############aaaaaaaaaaaa################aaaaaaaaaaaa############",
"####....########aaaa########........########aaaa########....####",
"####....########aaaa########........########aaaa########....####",
"####....########aaaa########........########aaaa########....####",
"####....########aaaa########........########aaaa########....####",
"################################################################",
"################################################################",
"################################################################",
"################################################################"};
