/* XPM */
static char *dummy[]={
"64 64 4 1",
"# c #071821",
". c #65ff00",
"a c #86c06c",
"b c #e0f8cf",
"................................................................",
"................................................................",
"................................................................",
"................................................................",
"................................................................",
"................................................................",
"................................................................",
"................................................................",
"........########................................########........",
"........########................................########........",
"........########................................########........",
"........########................................########........",
"....####aaaaaaaa####........................####aaaaaaaa####....",
"....####aaaaaaaa####........................####aaaaaaaa####....",
"....####aaaaaaaa####........................####aaaaaaaa####....",
"....####aaaaaaaa####........................####aaaaaaaa####....",
"####aaaaaaaa####aaaa####................####aaaa####aaaaaaaa####",
"####aaaaaaaa####aaaa####................####aaaa####aaaaaaaa####",
"####aaaaaaaa####aaaa####................####aaaa####aaaaaaaa####",
"####aaaaaaaa####aaaa####................####aaaa####aaaaaaaa####",
"####aaaa####aaaaaaaa########################aaaaaaaa####aaaa####",
"####aaaa####aaaaaaaa########################aaaaaaaa####aaaa####",
"####aaaa####aaaaaaaa########################aaaaaaaa####aaaa####",
"####aaaa####aaaaaaaa########################aaaaaaaa####aaaa####",
"####aaaaaaaaaaaa####bbbbbbbbaaaaaaaaaaaaaaaa####aaaaaaaaaaaa####",
"####aaaaaaaaaaaa####bbbbbbbbaaaaaaaaaaaaaaaa####aaaaaaaaaaaa####",
"####aaaaaaaaaaaa####bbbbbbbbaaaaaaaaaaaaaaaa####aaaaaaaaaaaa####",
"####aaaaaaaaaaaa####bbbbbbbbaaaaaaaaaaaaaaaa####aaaaaaaaaaaa####",
"....####aaaa####bbbbaaaaaaaaaaaaaaaaaaaaaaaaaaaa####aaaa####....",
"....####aaaa####bbbbaaaaaaaaaaaaaaaaaaaaaaaaaaaa####aaaa####....",
"....####aaaa####bbbbaaaaaaaaaaaaaaaaaaaaaaaaaaaa####aaaa####....",
"....####aaaa####bbbbaaaaaaaaaaaaaaaaaaaaaaaaaaaa####aaaa####....",
"........####aaaabbbbaaaaaaaaaaaaaaaaaaaaaaaaaaaaaaaa####........",
"........####aaaabbbbaaaaaaaaaaaaaaaaaaaaaaaaaaaaaaaa####........",
"........####aaaabbbbaaaaaaaaaaaaaaaaaaaaaaaaaaaaaaaa####........",
"........####aaaabbbbaaaaaaaaaaaaaaaaaaaaaaaaaaaaaaaa####........",
"....####aaaa####aaaa####bbbbbbbbbbbbbbbb####aaaa####aaaa####....",
"....####aaaa####aaaa####bbbbbbbbbbbbbbbb####aaaa####aaaa####....",
"....####aaaa####aaaa####bbbbbbbbbbbbbbbb####aaaa####aaaa####....",
"....####aaaa####aaaa####bbbbbbbbbbbbbbbb####aaaa####aaaa####....",
"####aaaa########aaaabbbb####bbbbbbbb####bbbbaaaa########aaaa####",
"####aaaa########aaaabbbb####bbbbbbbb####bbbbaaaa########aaaa####",
"####aaaa########aaaabbbb####bbbbbbbb####bbbbaaaa########aaaa####",
"####aaaa########aaaabbbb####bbbbbbbb####bbbbaaaa########aaaa####",
"########aaaaaaaa####bbbbbbbbbbbbbbbbbbbbbbbb####aaaaaaaa########",
"########aaaaaaaa####bbbbbbbbbbbbbbbbbbbbbbbb####aaaaaaaa########",
"########aaaaaaaa####bbbbbbbbbbbbbbbbbbbbbbbb####aaaaaaaa########",
"########aaaaaaaa####bbbbbbbbbbbbbbbbbbbbbbbb####aaaaaaaa########",
"####aaaa########aaaa########################aaaa########aaaa####",
"####aaaa########aaaa########################aaaa########aaaa####",
"####aaaa########aaaa########################aaaa########aaaa####",
"####aaaa########aaaa########################aaaa########aaaa####",
"####aaaa####aaaa####........................####aaaa####aaaa####",
"####aaaa####aaaa####........................####aaaa####aaaa####",
"####aaaa####aaaa####........................####aaaa####aaaa####",
"####aaaa####aaaa####........................####aaaa####aaaa####",
"....########aaaa####........................####aaaa########....",
"....########aaaa####........................####aaaa########....",
"....########aaaa####........................####aaaa########....",
"....########aaaa####........................####aaaa########....",
"............####................................####............",
"............####................................####............",
"............####................................####............",
"............####................................####............"};
