/* XPM */
static char *dummy[]={
"64 64 4 1",
"# c #071821",
". c #65ff00",
"a c #86c06c",
"b c #e0f8cf",
"................................................................",
"................................................................",
"................................................................",
"................................................................",
"........########................................########........",
"........########................................########........",
"........########................................########........",
"........########................................########........",
"....####aaaaaaaa####........................####aaaaaaaa####....",
"....####aaaaaaaa####........................####aaaaaaaa####....",
"....####aaaaaaaa####........................####aaaaaaaa####....",
"....####aaaaaaaa####........................####aaaaaaaa####....",
"####aaaaaaaa####aaaa####................####aaaa####aaaaaaaa####",
"####aaaaaaaa####aaaa####................####aaaa####aaaaaaaa####",
"####aaaaaaaa####aaaa####................####aaaa####aaaaaaaa####",
"####aaaaaaaa####aaaa####................####aaaa####aaaaaaaa####",
"####aaaa####aaaaaaaa####................####aaaaaaaa####aaaa####",
"####aaaa####aaaaaaaa####................####aaaaaaaa####aaaa####",
"####aaaa####aaaaaaaa####................####aaaaaaaa####aaaa####",
"####aaaa####aaaaaaaa####................####aaaaaaaa####aaaa####",
"####aaaaaaaaaaaa################################aaaaaaaaaaaa####",
"####aaaaaaaaaaaa################################aaaaaaaaaaaa####",
"####aaaaaaaaaaaa################################aaaaaaaaaaaa####",
"####aaaaaaaaaaaa################################aaaaaaaaaaaa####",
"....####aaaa########bbbbbbbbaaaaaaaaaaaaaaaa########aaaa####....",
"....####aaaa########bbbbbbbbaaaaaaaaaaaaaaaa########aaaa####....",
"....####aaaa########bbbbbbbbaaaaaaaaaaaaaaaa########aaaa####....",
"....####aaaa########bbbbbbbbaaaaaaaaaaaaaaaa########aaaa####....",
"........####aaaabbbbaaaaaaaaaaaaaaaaaaaaaaaaaaaaaaaa####........",
"........####aaaabbbbaaaaaaaaaaaaaaaaaaaaaaaaaaaaaaaa####........",
"........####aaaabbbbaaaaaaaaaaaaaaaaaaaaaaaaaaaaaaaa####........",
"........####aaaabbbbaaaaaaaaaaaaaaaaaaaaaaaaaaaaaaaa####........",
"....############bbbbaaaaaaaaaaaaaaaaaaaaaaaaaaaa############....",
"....############bbbbaaaaaaaaaaaaaaaaaaaaaaaaaaaa############....",
"....############bbbbaaaaaaaaaaaaaaaaaaaaaaaaaaaa############....",
"....############bbbbaaaaaaaaaaaaaaaaaaaaaaaaaaaa############....",
"####aaaaaaaa####aaaa####bbbbbbbbbbbbbbbb####aaaa####aaaaaaaa####",
"####aaaaaaaa####aaaa####bbbbbbbbbbbbbbbb####aaaa####aaaaaaaa####",
"####aaaaaaaa####aaaa####bbbbbbbbbbbbbbbb####aaaa####aaaaaaaa####",
"####aaaaaaaa####aaaa####bbbbbbbbbbbbbbbb####aaaa####aaaaaaaa####",
"....############aaaabbbb####bbbbbbbb####bbbbaaaa############....",
"....############aaaabbbb####bbbbbbbb####bbbbaaaa############....",
"....############aaaabbbb####bbbbbbbb####bbbbaaaa############....",
"....############aaaabbbb####bbbbbbbb####bbbbaaaa############....",
"....####aaaaaaaa####bbbbbbbbbbbbbbbbbbbbbbbb####aaaaaaaa####....",
"....####aaaaaaaa####bbbbbbbbbbbbbbbbbbbbbbbb####aaaaaaaa####....",
"....####aaaaaaaa####bbbbbbbbbbbbbbbbbbbbbbbb####aaaaaaaa####....",
"....####aaaaaaaa####bbbbbbbbbbbbbbbbbbbbbbbb####aaaaaaaa####....",
"####aaaa########aaaa########################aaaa########aaaa####",
"####aaaa########aaaa########################aaaa########aaaa####",
"####aaaa########aaaa########################aaaa########aaaa####",
"####aaaa########aaaa########################aaaa########aaaa####",
"....########aaaa####........................####aaaa########....",
"....########aaaa####........................####aaaa########....",
"....########aaaa####........................####aaaa########....",
"....########aaaa####........................####aaaa########....",
"....####aaaa####................................####aaaa####....",
"....####aaaa####................................####aaaa####....",
"....####aaaa####................................####aaaa####....",
"....####aaaa####................................####aaaa####....",
"........####........................................####........",
"........####........................................####........",
"........####........................................####........",
"........####........................................####........"};
