/* XPM */
static char *dummy[]={
"64 64 5 1",
"# c #2a0503",
". c #65ff00",
"c c #8e2f15",
"a c #da7a34",
"b c #fff6d3",
"................................................................",
"................................................................",
"................................................................",
"................................................................",
"............................########............................",
"............................########............................",
"............................########............................",
"............................########............................",
"........................####aaaaaaaa####........................",
"........................####aaaaaaaa####........................",
"........................####aaaaaaaa####........................",
"........................####aaaaaaaa####........................",
"........................####bbbbbbbb####........................",
"........................####bbbbbbbb####........................",
"........................####bbbbbbbb####........................",
"........................####bbbbbbbb####........................",
"........................################........................",
"........................################........................",
"........................################........................",
"........................################........................",
"........................####ccccaaaa####........................",
"........................####ccccaaaa####........................",
"........................####ccccaaaa####........................",
"........................####ccccaaaa####........................",
"........................####ccccaaaa####........................",
"........................####ccccaaaa####........................",
"........................####ccccaaaa####........................",
"........................####ccccaaaa####........................",
"....................####ccccccccbbbbcccc####....................",
"....................####ccccccccbbbbcccc####....................",
"....................####ccccccccbbbbcccc####....................",
"....................####ccccccccbbbbcccc####....................",
"....................####ccccaaaabbbbcccc####....................",
"....................####ccccaaaabbbbcccc####....................",
"....................####ccccaaaabbbbcccc####....................",
"....................####ccccaaaabbbbcccc####....................",
"................####ccccaaaaaaaabbbbbbbbcccc####................",
"................####ccccaaaaaaaabbbbbbbbcccc####................",
"................####ccccaaaaaaaabbbbbbbbcccc####................",
"................####ccccaaaaaaaabbbbbbbbcccc####................",
"................####aaaaaaaaaaaabbbbbbbbaaaa####................",
"................####aaaaaaaaaaaabbbbbbbbaaaa####................",
"................####aaaaaaaaaaaabbbbbbbbaaaa####................",
"................####aaaaaaaaaaaabbbbbbbbaaaa####................",
"................####aaaaaaaaaaaaaaaaaaaaaaaa####................",
"................####aaaaaaaaaaaaaaaaaaaaaaaa####................",
"................####aaaaaaaaaaaaaaaaaaaaaaaa####................",
"................####aaaaaaaaaaaaaaaaaaaaaaaa####................",
"................####ccccaaaaaaaabbbbaaaacccc####................",
"................####ccccaaaaaaaabbbbaaaacccc####................",
"................####ccccaaaaaaaabbbbaaaacccc####................",
"................####ccccaaaaaaaabbbbaaaacccc####................",
"................####cccccccccccccccccccccccc####................",
"................####cccccccccccccccccccccccc####................",
"................####cccccccccccccccccccccccc####................",
"................####cccccccccccccccccccccccc####................",
"....................########################....................",
"....................########################....................",
"....................########################....................",
"....................########################....................",
"................................................................",
"................................................................",
"................................................................",
"................................................................"};
