/* XPM */
static char *dummy[]={
"64 64 4 1",
"a c #071821",
". c #65ff00",
"b c #86c06c",
"# c #e0f8cf",
"............................################aaaaaaaaaaaa........",
"............................################aaaaaaaaaaaa........",
"............................################aaaaaaaaaaaa........",
"............................################aaaaaaaaaaaa........",
"....................########aaaaaaaaaaaaaaaaaaaa####aaaa........",
"....................########aaaaaaaaaaaaaaaaaaaa####aaaa........",
"....................########aaaaaaaaaaaaaaaaaaaa####aaaa........",
"....................########aaaaaaaaaaaaaaaaaaaa####aaaa........",
"................####aaaaaaaaaaaaaaaaaaaaaaaaaaaaaaaa####........",
"................####aaaaaaaaaaaaaaaaaaaaaaaaaaaaaaaa####........",
"................####aaaaaaaaaaaaaaaaaaaaaaaaaaaaaaaa####........",
"................####aaaaaaaaaaaaaaaaaaaaaaaaaaaaaaaa####........",
"............####aaaaaaaaaaaaaaaaaaaaaaaaaaaaaaaa####aaaa........",
"............####aaaaaaaaaaaaaaaaaaaaaaaaaaaaaaaa####aaaa........",
"............####aaaaaaaaaaaaaaaaaaaaaaaaaaaaaaaa####aaaa........",
"............####aaaaaaaaaaaaaaaaaaaaaaaaaaaaaaaa####aaaa........",
"........####aaaaaaaaaaaaaaaaaaaaaaaaaaaaaaaaaaaaaaaaaaaa........",
"........####aaaaaaaaaaaaaaaaaaaaaaaaaaaaaaaaaaaaaaaaaaaa........",
"........####aaaaaaaaaaaaaaaaaaaaaaaaaaaaaaaaaaaaaaaaaaaa........",
"........####aaaaaaaaaaaaaaaaaaaaaaaaaaaaaaaaaaaaaaaaaaaa........",
"....####aaaaaaaaaaaaaaaaaaaaaaaabbbbbbbbbbbbbbbbaaaa............",
"....####aaaaaaaaaaaaaaaaaaaaaaaabbbbbbbbbbbbbbbbaaaa............",
"....####aaaaaaaaaaaaaaaaaaaaaaaabbbbbbbbbbbbbbbbaaaa............",
"....####aaaaaaaaaaaaaaaaaaaaaaaabbbbbbbbbbbbbbbbaaaa............",
"....####aaaaaaaaaaaaaaaaaaaabbbbaaaaaaaaaaaaaaaaaaaa............",
"....####aaaaaaaaaaaaaaaaaaaabbbbaaaaaaaaaaaaaaaaaaaa............",
"....####aaaaaaaaaaaaaaaaaaaabbbbaaaaaaaaaaaaaaaaaaaa............",
"....####aaaaaaaaaaaaaaaaaaaabbbbaaaaaaaaaaaaaaaaaaaa............",
"####aaaaaaaaaaaaaaaaaaaabbbbaaaaaaaaaaaaaaaa########aaaa........",
"####aaaaaaaaaaaaaaaaaaaabbbbaaaaaaaaaaaaaaaa########aaaa........",
"####aaaaaaaaaaaaaaaaaaaabbbbaaaaaaaaaaaaaaaa########aaaa........",
"####aaaaaaaaaaaaaaaaaaaabbbbaaaaaaaaaaaaaaaa########aaaa........",
"####aaaaaaaaaaaabbbbaaaabbbbaaaa####################aaaa........",
"####aaaaaaaaaaaabbbbaaaabbbbaaaa####################aaaa........",
"####aaaaaaaaaaaabbbbaaaabbbbaaaa####################aaaa........",
"####aaaaaaaaaaaabbbbaaaabbbbaaaa####################aaaa........",
"####aaaaaaaabbbbaaaabbbbaaaa####################aaaa............",
"####aaaaaaaabbbbaaaabbbbaaaa####################aaaa............",
"####aaaaaaaabbbbaaaabbbbaaaa####################aaaa............",
"####aaaaaaaabbbbaaaabbbbaaaa####################aaaa............",
"aaaaaaaabbbbaaaabbbbaaaaaaaaaaaaaaaaaaaaaaaaaaaa................",
"aaaaaaaabbbbaaaabbbbaaaaaaaaaaaaaaaaaaaaaaaaaaaa................",
"aaaaaaaabbbbaaaabbbbaaaaaaaaaaaaaaaaaaaaaaaaaaaa................",
"aaaaaaaabbbbaaaabbbbaaaaaaaaaaaaaaaaaaaaaaaaaaaa................",
"aaaabbbbaaaabbbbaaaaaaaa####aaaaaaaa####bbbb....................",
"aaaabbbbaaaabbbbaaaaaaaa####aaaaaaaa####bbbb....................",
"aaaabbbbaaaabbbbaaaaaaaa####aaaaaaaa####bbbb....................",
"aaaabbbbaaaabbbbaaaaaaaa####aaaaaaaa####bbbb....................",
"aaaabbbbaaaaaaaaaaaaaaaa########aaaaaaaabbbb....................",
"aaaabbbbaaaaaaaaaaaaaaaa########aaaaaaaabbbb....................",
"aaaabbbbaaaaaaaaaaaaaaaa########aaaaaaaabbbb....................",
"aaaabbbbaaaaaaaaaaaaaaaa########aaaaaaaabbbb....................",
"aaaaaaaabbbbaaaaaaaaaaaaaaaaaaaaaaaa####bbbb....................",
"aaaaaaaabbbbaaaaaaaaaaaaaaaaaaaaaaaa####bbbb....................",
"aaaaaaaabbbbaaaaaaaaaaaaaaaaaaaaaaaa####bbbb....................",
"aaaaaaaabbbbaaaaaaaaaaaaaaaaaaaaaaaa####bbbb....................",
"........aaaaaaaaaaaaaaaaaaaaaaaaaaaaaaaaaaaaaaaa................",
"........aaaaaaaaaaaaaaaaaaaaaaaaaaaaaaaaaaaaaaaa................",
"........aaaaaaaaaaaaaaaaaaaaaaaaaaaaaaaaaaaaaaaa................",
"........aaaaaaaaaaaaaaaaaaaaaaaaaaaaaaaaaaaaaaaa................",
"........................aaaaaaaaaaaaaaaaaaaaaaaa................",
"........................aaaaaaaaaaaaaaaaaaaaaaaa................",
"........................aaaaaaaaaaaaaaaaaaaaaaaa................",
"........................aaaaaaaaaaaaaaaaaaaaaaaa................"};
