/* XPM */
static char *dummy[]={
"64 64 4 1",
"# c #071821",
". c #65ff00",
"b c #86c06c",
"a c #e0f8cf",
"................................................................",
"................................................................",
"................................................................",
"................................................................",
"............########################################............",
"............########################################............",
"............########################################............",
"............########################################............",
"........################################################........",
"........################################################........",
"........################################################........",
"........################################################........",
"....########################################################....",
"....########################################################....",
"....########################################################....",
"....########################################################....",
"########aaaaaaaaaaaa########################aaaaaaaaaaaa########",
"########aaaaaaaaaaaa########################aaaaaaaaaaaa########",
"########aaaaaaaaaaaa########################aaaaaaaaaaaa########",
"########aaaaaaaaaaaa########################aaaaaaaaaaaa########",
"####aaaa############aaaa################aaaa############aaaa####",
"####aaaa############aaaa################aaaa############aaaa####",
"####aaaa############aaaa################aaaa############aaaa####",
"####aaaa############aaaa################aaaa############aaaa####",
"aaaa################aaaa################aaaa################aaaa",
"aaaa################aaaa################aaaa################aaaa",
"aaaa################aaaa################aaaa################aaaa",
"aaaa################aaaa################aaaa################aaaa",
"....####################aaaa########aaaa####################....",
"....####################aaaa########aaaa####################....",
"....####################aaaa########aaaa####################....",
"....####################aaaa########aaaa####################....",
"....####bbbb############aaaa########aaaa############bbbb########",
"....####bbbb############aaaa########aaaa############bbbb########",
"....####bbbb############aaaa########aaaa############bbbb########",
"....####bbbb############aaaa########aaaa############bbbb########",
"....####bbbb####bbbb########aaaaaaaa####################bbbb####",
"....####bbbb####bbbb########aaaaaaaa####################bbbb####",
"....####bbbb####bbbb########aaaaaaaa####################bbbb####",
"....####bbbb####bbbb########aaaaaaaa####################bbbb####",
"........####bbbbbbbb####bbbb########bbbbbbbbbbbb####bbbb########",
"........####bbbbbbbb####bbbb########bbbbbbbbbbbb####bbbb########",
"........####bbbbbbbb####bbbb########bbbbbbbbbbbb####bbbb########",
"........####bbbbbbbb####bbbb########bbbbbbbbbbbb####bbbb########",
"....####bbbbbbbb####bbbbbbbb####bbbb########bbbb####bbbbbbbb####",
"....####bbbbbbbb####bbbbbbbb####bbbb########bbbb####bbbbbbbb####",
"....####bbbbbbbb####bbbbbbbb####bbbb########bbbb####bbbbbbbb####",
"....####bbbbbbbb####bbbbbbbb####bbbb########bbbb####bbbbbbbb####",
"....####bbbbbbbb####bbbb####bbbbbbbbbbbb####bbbbbbbb####bbbbbbbb",
"....####bbbbbbbb####bbbb####bbbbbbbbbbbb####bbbbbbbb####bbbbbbbb",
"....####bbbbbbbb####bbbb####bbbbbbbbbbbb####bbbbbbbb####bbbbbbbb",
"....####bbbbbbbb####bbbb####bbbbbbbbbbbb####bbbbbbbb####bbbbbbbb",
"....####bbbb########bbbb####bbbbbbbbbbbb########bbbbbbbb########",
"....####bbbb########bbbb####bbbbbbbbbbbb########bbbbbbbb########",
"....####bbbb########bbbb####bbbbbbbbbbbb########bbbbbbbb########",
"....####bbbb########bbbb####bbbbbbbbbbbb########bbbbbbbb########",
"........############bbbb########bbbbbbbbbbbb############........",
"........############bbbb########bbbbbbbbbbbb############........",
"........############bbbb########bbbbbbbbbbbb############........",
"........############bbbb########bbbbbbbbbbbb############........",
"................################################................",
"................################################................",
"................################################................",
"................################################................"};
