/* XPM */
static char *dummy[]={
"64 64 4 1",
"# c #071821",
". c #65ff00",
"b c #86c06c",
"a c #e0f8cf",
"................................................................",
"................................................................",
"................................................................",
"................................................................",
"............########################################............",
"............########################################............",
"............########################################............",
"............########################################............",
"........################################################........",
"........################################################........",
"........################################################........",
"........################################################........",
"....########################################################....",
"....########################################################....",
"....########################################################....",
"....########################################################....",
"########aaaaaaaaaaaa########################aaaaaaaaaaaa########",
"########aaaaaaaaaaaa########################aaaaaaaaaaaa########",
"########aaaaaaaaaaaa########################aaaaaaaaaaaa########",
"########aaaaaaaaaaaa########################aaaaaaaaaaaa########",
"####aaaa############aaaa################aaaa############aaaa####",
"####aaaa############aaaa################aaaa############aaaa####",
"####aaaa############aaaa################aaaa############aaaa####",
"####aaaa############aaaa################aaaa############aaaa####",
"aaaa################aaaa################aaaa################aaaa",
"aaaa################aaaa################aaaa################aaaa",
"aaaa################aaaa################aaaa################aaaa",
"aaaa################aaaa################aaaa################aaaa",
"....####################aaaa########aaaa####################....",
"....####################aaaa########aaaa####################....",
"....####################aaaa########aaaa####################....",
"....####################aaaa########aaaa####################....",
"####bbbbbbbb############aaaa########aaaa############bbbb####....",
"####bbbbbbbb############aaaa########aaaa############bbbb####....",
"####bbbbbbbb############aaaa########aaaa############bbbb####....",
"####bbbbbbbb############aaaa########aaaa############bbbb####....",
"bbbbbbbb####bbbbbbbb########aaaaaaaa############bbbb########....",
"bbbbbbbb####bbbbbbbb########aaaaaaaa############bbbb########....",
"bbbbbbbb####bbbbbbbb########aaaaaaaa############bbbb########....",
"bbbbbbbb####bbbbbbbb########aaaaaaaa############bbbb########....",
"########bbbbbbbb########bbbb########bbbbbbbb########bbbb####....",
"########bbbbbbbb########bbbb########bbbbbbbb########bbbb####....",
"########bbbbbbbb########bbbb########bbbbbbbb########bbbb####....",
"########bbbbbbbb########bbbb########bbbbbbbb########bbbb####....",
"####bbbbbbbb########bbbb########bbbb####bbbbbbbb####bbbb####....",
"####bbbbbbbb########bbbb########bbbb####bbbbbbbb####bbbb####....",
"####bbbbbbbb########bbbb########bbbb####bbbbbbbb####bbbb####....",
"####bbbbbbbb########bbbb########bbbb####bbbbbbbb####bbbb####....",
"############bbbbbbbbbbbb####bbbbbbbb####bbbbbbbb####bbbb####....",
"############bbbbbbbbbbbb####bbbbbbbb####bbbbbbbb####bbbb####....",
"############bbbbbbbbbbbb####bbbbbbbb####bbbbbbbb####bbbb####....",
"############bbbbbbbbbbbb####bbbbbbbb####bbbbbbbb####bbbb####....",
"########bbbbbbbbbbbb########bbbbbbbb####bbbb########bbbb####....",
"########bbbbbbbbbbbb########bbbbbbbb####bbbb########bbbb####....",
"########bbbbbbbbbbbb########bbbbbbbb####bbbb########bbbb####....",
"########bbbbbbbbbbbb########bbbbbbbb####bbbb########bbbb####....",
"........################bbbbbbbb########bbbb############........",
"........################bbbbbbbb########bbbb############........",
"........################bbbbbbbb########bbbb############........",
"........################bbbbbbbb########bbbb############........",
"................################################................",
"................################################................",
"................################################................",
"................################################................"};
