/* XPM */
static char *dummy[]={
"64 64 4 1",
"a c #071821",
". c #65ff00",
"b c #86c06c",
"# c #e0f8cf",
"................................................................",
"................................................................",
"................................................................",
"................................................................",
"............########aaaaaaaaaaaaaaaaaaaaaaaa########............",
"............########aaaaaaaaaaaaaaaaaaaaaaaa########............",
"............########aaaaaaaaaaaaaaaaaaaaaaaa########............",
"............########aaaaaaaaaaaaaaaaaaaaaaaa########............",
"........####aaaaaaaaaaaa####aaaaaaaa####aaaaaaaaaaaa####........",
"........####aaaaaaaaaaaa####aaaaaaaa####aaaaaaaaaaaa####........",
"........####aaaaaaaaaaaa####aaaaaaaa####aaaaaaaaaaaa####........",
"........####aaaaaaaaaaaa####aaaaaaaa####aaaaaaaaaaaa####........",
"....####aaaaaaaaaaaaaaaaaaaa########aaaaaaaaaaaaaaaaaaaa####....",
"....####aaaaaaaaaaaaaaaaaaaa########aaaaaaaaaaaaaaaaaaaa####....",
"....####aaaaaaaaaaaaaaaaaaaa########aaaaaaaaaaaaaaaaaaaa####....",
"....####aaaaaaaaaaaaaaaaaaaa########aaaaaaaaaaaaaaaaaaaa####....",
"####aaaaaaaaaaaaaaaaaaaa####aaaaaaaa####aaaaaaaaaaaaaaaaaaaa####",
"####aaaaaaaaaaaaaaaaaaaa####aaaaaaaa####aaaaaaaaaaaaaaaaaaaa####",
"####aaaaaaaaaaaaaaaaaaaa####aaaaaaaa####aaaaaaaaaaaaaaaaaaaa####",
"####aaaaaaaaaaaaaaaaaaaa####aaaaaaaa####aaaaaaaaaaaaaaaaaaaa####",
"aaaaaaaaaaaaaaaaaaaaaaaaaaaaaaaaaaaaaaaaaaaaaaaaaaaaaaaaaaaaaaaa",
"aaaaaaaaaaaaaaaaaaaaaaaaaaaaaaaaaaaaaaaaaaaaaaaaaaaaaaaaaaaaaaaa",
"aaaaaaaaaaaaaaaaaaaaaaaaaaaaaaaaaaaaaaaaaaaaaaaaaaaaaaaaaaaaaaaa",
"aaaaaaaaaaaaaaaaaaaaaaaaaaaaaaaaaaaaaaaaaaaaaaaaaaaaaaaaaaaaaaaa",
"aaaaaaaaaaaabbbbaaaaaaaaaaaabbbbbbbbbbbbbbbbbbbbaaaaaaaaaaaaaaaa",
"aaaaaaaaaaaabbbbaaaaaaaaaaaabbbbbbbbbbbbbbbbbbbbaaaaaaaaaaaaaaaa",
"aaaaaaaaaaaabbbbaaaaaaaaaaaabbbbbbbbbbbbbbbbbbbbaaaaaaaaaaaaaaaa",
"aaaaaaaaaaaabbbbaaaaaaaaaaaabbbbbbbbbbbbbbbbbbbbaaaaaaaaaaaaaaaa",
"....aaaabbbbbbbbaaaabbbbaaaaaaaaaaaaaaaaaaaaaaaaaaaabbbbaaaa....",
"....aaaabbbbbbbbaaaabbbbaaaaaaaaaaaaaaaaaaaaaaaaaaaabbbbaaaa....",
"....aaaabbbbbbbbaaaabbbbaaaaaaaaaaaaaaaaaaaaaaaaaaaabbbbaaaa....",
"....aaaabbbbbbbbaaaabbbbaaaaaaaaaaaaaaaaaaaaaaaaaaaabbbbaaaa....",
"aaaabbbbbbbbaaaabbbbbbbbaaaa####aaaaaaaaaaaaaaaa####aaaabbbbaaaa",
"aaaabbbbbbbbaaaabbbbbbbbaaaa####aaaaaaaaaaaaaaaa####aaaabbbbaaaa",
"aaaabbbbbbbbaaaabbbbbbbbaaaa####aaaaaaaaaaaaaaaa####aaaabbbbaaaa",
"aaaabbbbbbbbaaaabbbbbbbbaaaa####aaaaaaaaaaaaaaaa####aaaabbbbaaaa",
"....aaaaaaaabbbbbbbbaaaaaaaa########aaaaaaaa########aaaaaaaa....",
"....aaaaaaaabbbbbbbbaaaaaaaa########aaaaaaaa########aaaaaaaa....",
"....aaaaaaaabbbbbbbbaaaaaaaa########aaaaaaaa########aaaaaaaa....",
"....aaaaaaaabbbbbbbbaaaaaaaa########aaaaaaaa########aaaaaaaa....",
"........aaaabbbbaaaa############################aaaaaaaa........",
"........aaaabbbbaaaa############################aaaaaaaa........",
"........aaaabbbbaaaa############################aaaaaaaa........",
"........aaaabbbbaaaa############################aaaaaaaa........",
"........aaaaaaaaaaaaaaaaaaaaaaaaaaaaaaaaaaaaaaaaaaaaaaaa........",
"........aaaaaaaaaaaaaaaaaaaaaaaaaaaaaaaaaaaaaaaaaaaaaaaa........",
"........aaaaaaaaaaaaaaaaaaaaaaaaaaaaaaaaaaaaaaaaaaaaaaaa........",
"........aaaaaaaaaaaaaaaaaaaaaaaaaaaaaaaaaaaaaaaaaaaaaaaa........",
"........aaaaaaaa####aaaa####bbbbbbbb####aaaaaaaaaaaa####aaaa....",
"........aaaaaaaa####aaaa####bbbbbbbb####aaaaaaaaaaaa####aaaa....",
"........aaaaaaaa####aaaa####bbbbbbbb####aaaaaaaaaaaa####aaaa....",
"........aaaaaaaa####aaaa####bbbbbbbb####aaaaaaaaaaaa####aaaa....",
"............aaaa########aaaabbbbbbbbaaaaaaaaaaaaaaaa####aaaa....",
"............aaaa########aaaabbbbbbbbaaaaaaaaaaaaaaaa####aaaa....",
"............aaaa########aaaabbbbbbbbaaaaaaaaaaaaaaaa####aaaa....",
"............aaaa########aaaabbbbbbbbaaaaaaaaaaaaaaaa####aaaa....",
"................aaaaaaaaaaaaaaaaaaaaaaaaaaaaaaaaaaaaaaaa........",
"................aaaaaaaaaaaaaaaaaaaaaaaaaaaaaaaaaaaaaaaa........",
"................aaaaaaaaaaaaaaaaaaaaaaaaaaaaaaaaaaaaaaaa........",
"................aaaaaaaaaaaaaaaaaaaaaaaaaaaaaaaaaaaaaaaa........",
"....................aaaaaaaa........aaaaaaaaaaaa................",
"....................aaaaaaaa........aaaaaaaaaaaa................",
"....................aaaaaaaa........aaaaaaaaaaaa................",
"....................aaaaaaaa........aaaaaaaaaaaa................"};
