/* XPM */
static char *dummy[]={
"64 64 4 1",
"# c #071821",
". c #65ff00",
"b c #86c06c",
"a c #e0f8cf",
"................................................................",
"................................................................",
"................................................................",
"................................................................",
"........############aaaaaaaaaaaaaaaa............................",
"........############aaaaaaaaaaaaaaaa............................",
"........############aaaaaaaaaaaaaaaa............................",
"........############aaaaaaaaaaaaaaaa............................",
"........####aaaa####################aaaaaaaa....................",
"........####aaaa####################aaaaaaaa....................",
"........####aaaa####################aaaaaaaa....................",
"........####aaaa####################aaaaaaaa....................",
"........aaaa################################aaaa................",
"........aaaa################################aaaa................",
"........aaaa################################aaaa................",
"........aaaa################################aaaa................",
"........####aaaa################################aaaa............",
"........####aaaa################################aaaa............",
"........####aaaa################################aaaa............",
"........####aaaa################################aaaa............",
"........############################################aaaa........",
"........############################################aaaa........",
"........############################################aaaa........",
"........############################################aaaa........",
"............####bbbbbbbbbbbbbbbb########################aaaa....",
"............####bbbbbbbbbbbbbbbb########################aaaa....",
"............####bbbbbbbbbbbbbbbb########################aaaa....",
"............####bbbbbbbbbbbbbbbb########################aaaa....",
"............####################bbbb####################aaaa....",
"............####################bbbb####################aaaa....",
"............####################bbbb####################aaaa....",
"............####################bbbb####################aaaa....",
"........####aaaaaaaa################bbbb####################aaaa",
"........####aaaaaaaa################bbbb####################aaaa",
"........####aaaaaaaa################bbbb####################aaaa",
"........####aaaaaaaa################bbbb####################aaaa",
"........####aaaaaaaaaaaaaaaaaaaa####bbbb####bbbb############aaaa",
"........####aaaaaaaaaaaaaaaaaaaa####bbbb####bbbb############aaaa",
"........####aaaaaaaaaaaaaaaaaaaa####bbbb####bbbb############aaaa",
"........####aaaaaaaaaaaaaaaaaaaa####bbbb####bbbb############aaaa",
"............####aaaaaaaaaaaaaaaaaaaa####bbbb####bbbb########aaaa",
"............####aaaaaaaaaaaaaaaaaaaa####bbbb####bbbb########aaaa",
"............####aaaaaaaaaaaaaaaaaaaa####bbbb####bbbb########aaaa",
"............####aaaaaaaaaaaaaaaaaaaa####bbbb####bbbb########aaaa",
"................############################bbbb####bbbb########",
"................############################bbbb####bbbb########",
"................############################bbbb####bbbb########",
"................############################bbbb####bbbb########",
"....................bbbb####aaaa################bbbb####bbbb####",
"....................bbbb####aaaa################bbbb####bbbb####",
"....................bbbb####aaaa################bbbb####bbbb####",
"....................bbbb####aaaa################bbbb####bbbb####",
"................########aaaaaaaa########################bbbb####",
"................########aaaaaaaa########################bbbb####",
"................########aaaaaaaa########################bbbb####",
"................########aaaaaaaa########################bbbb####",
"............########################################bbbb########",
"............########################################bbbb########",
"............########################################bbbb########",
"............########################################bbbb########",
"............####################........################........",
"............####################........################........",
"............####################........################........",
"............####################........################........"};
