/* XPM */
static char *dummy[]={
"64 64 3 1",
"# c #071821",
". c #86c06c",
"a c #e0f8cf",
"................................................................",
"................................................................",
"................................................................",
"................................................................",
"........................########################................",
"........................########################................",
"........................########################................",
"........................########################................",
"................########............aaaaaaaa....########........",
"................########............aaaaaaaa....########........",
"................########............aaaaaaaa....########........",
"................########............aaaaaaaa....########........",
"............####........aaaaaaaaaaaaaaaaaaaaaaaaaaaa....####....",
"............####........aaaaaaaaaaaaaaaaaaaaaaaaaaaa....####....",
"............####........aaaaaaaaaaaaaaaaaaaaaaaaaaaa....####....",
"............####........aaaaaaaaaaaaaaaaaaaaaaaaaaaa....####....",
"....########....aaaaaaaaaaaaaaaaaaaaaaaaaaaaaaaaaaaaaaaa....####",
"....########....aaaaaaaaaaaaaaaaaaaaaaaaaaaaaaaaaaaaaaaa....####",
"....########....aaaaaaaaaaaaaaaaaaaaaaaaaaaaaaaaaaaaaaaa....####",
"....########....aaaaaaaaaaaaaaaaaaaaaaaaaaaaaaaaaaaaaaaa....####",
"####........aaaaaaaaaaaaaaaaaaaaaaaaaaaaaaaaaaaaaaaaaaaaaaaa####",
"####........aaaaaaaaaaaaaaaaaaaaaaaaaaaaaaaaaaaaaaaaaaaaaaaa####",
"####........aaaaaaaaaaaaaaaaaaaaaaaaaaaaaaaaaaaaaaaaaaaaaaaa####",
"####........aaaaaaaaaaaaaaaaaaaaaaaaaaaaaaaaaaaaaaaaaaaaaaaa####",
"####........aaaaaaaaaaaaaaaaaaaaaaaaaaaaaaaaaaaaaaaaaaaaaaaa####",
"####........aaaaaaaaaaaaaaaaaaaaaaaaaaaaaaaaaaaaaaaaaaaaaaaa####",
"####........aaaaaaaaaaaaaaaaaaaaaaaaaaaaaaaaaaaaaaaaaaaaaaaa####",
"####........aaaaaaaaaaaaaaaaaaaaaaaaaaaaaaaaaaaaaaaaaaaaaaaa####",
"####........aaaaaaaaaaaaaaaaaaaaaaaaaaaaaaaaaaaaaaaaaaaaaaaa####",
"####........aaaaaaaaaaaaaaaaaaaaaaaaaaaaaaaaaaaaaaaaaaaaaaaa####",
"####........aaaaaaaaaaaaaaaaaaaaaaaaaaaaaaaaaaaaaaaaaaaaaaaa####",
"####........aaaaaaaaaaaaaaaaaaaaaaaaaaaaaaaaaaaaaaaaaaaaaaaa####",
"####....aaaaaaaaaaaaaaaaaaaaaaaaaaaaaaaaaaaaaaaaaaaaaaaa....####",
"####....aaaaaaaaaaaaaaaaaaaaaaaaaaaaaaaaaaaaaaaaaaaaaaaa....####",
"####....aaaaaaaaaaaaaaaaaaaaaaaaaaaaaaaaaaaaaaaaaaaaaaaa....####",
"####....aaaaaaaaaaaaaaaaaaaaaaaaaaaaaaaaaaaaaaaaaaaaaaaa....####",
"########....aaaaaaaaaaaa........aaaaaaaaaaaaaaaaaaaaaaaaaaaa####",
"########....aaaaaaaaaaaa........aaaaaaaaaaaaaaaaaaaaaaaaaaaa####",
"########....aaaaaaaaaaaa........aaaaaaaaaaaaaaaaaaaaaaaaaaaa####",
"########....aaaaaaaaaaaa........aaaaaaaaaaaaaaaaaaaaaaaaaaaa####",
"########....................aaaaaaaaaaaaaaaaaaaaaaaaaaaaaaaa####",
"########....................aaaaaaaaaaaaaaaaaaaaaaaaaaaaaaaa####",
"########....................aaaaaaaaaaaaaaaaaaaaaaaaaaaaaaaa####",
"########....................aaaaaaaaaaaaaaaaaaaaaaaaaaaaaaaa####",
"....########........####........aaaaaaaaaaaaaaaaaaaaaaaa....####",
"....########........####........aaaaaaaaaaaaaaaaaaaaaaaa....####",
"....########........####........aaaaaaaaaaaaaaaaaaaaaaaa....####",
"....########........####........aaaaaaaaaaaaaaaaaaaaaaaa....####",
"....########################........aaaaaaaaaaaa............####",
"....########################........aaaaaaaaaaaa............####",
"....########################........aaaaaaaaaaaa............####",
"....########################........aaaaaaaaaaaa............####",
"........########################........................####....",
"........########################........................####....",
"........########################........................####....",
"........########################........................####....",
"............############################################........",
"............############################################........",
"............############################################........",
"............############################################........",
"................................................................",
"................................................................",
"................................................................",
"................................................................"};
